<mxfile host="www.draw.io" modified="2019-10-28T03:43:31.808Z" agent="Mozilla/5.0 (Macintosh; Intel Mac OS X 10_14_4) AppleWebKit/605.1.15 (KHTML, like Gecko) Version/12.1 Safari/605.1.15" etag="x8KX5Qf82AB3gZIddH26" version="12.1.7" type="github" pages="1">
  <diagram id="oGI733MQfsc_oNunpLbR" name="Page-1">
    <mxGraphModel dx="766" dy="547" grid="1" gridSize="10" guides="1" tooltips="1" connect="1" arrows="1" fold="1" page="1" pageScale="1" pageWidth="850" pageHeight="1100" math="0" shadow="0">
      <root>
        <mxCell id="0"/>
        <mxCell id="1" parent="0"/>
        <mxCell id="XLtBr_4N720LXZbBLFT1-5" value="User1&lt;br&gt;(participant)" style="html=1;fontSize=18;" vertex="1" parent="1">
          <mxGeometry x="130" y="80" width="110" height="50" as="geometry"/>
        </mxCell>
        <mxCell id="XLtBr_4N720LXZbBLFT1-14" style="edgeStyle=orthogonalEdgeStyle;rounded=0;orthogonalLoop=1;jettySize=auto;html=1;exitX=0;exitY=0.5;exitDx=0;exitDy=0;entryX=1;entryY=0.5;entryDx=0;entryDy=0;fontSize=18;" edge="1" parent="1" source="XLtBr_4N720LXZbBLFT1-10" target="XLtBr_4N720LXZbBLFT1-5">
          <mxGeometry relative="1" as="geometry"/>
        </mxCell>
        <mxCell id="XLtBr_4N720LXZbBLFT1-15" style="edgeStyle=orthogonalEdgeStyle;rounded=0;orthogonalLoop=1;jettySize=auto;html=1;exitX=0;exitY=0.5;exitDx=0;exitDy=0;entryX=1.009;entryY=0.64;entryDx=0;entryDy=0;entryPerimeter=0;fontSize=18;" edge="1" parent="1" source="XLtBr_4N720LXZbBLFT1-10" target="XLtBr_4N720LXZbBLFT1-6">
          <mxGeometry relative="1" as="geometry"/>
        </mxCell>
        <mxCell id="XLtBr_4N720LXZbBLFT1-16" style="edgeStyle=orthogonalEdgeStyle;rounded=0;orthogonalLoop=1;jettySize=auto;html=1;entryX=1;entryY=0.5;entryDx=0;entryDy=0;fontSize=18;" edge="1" parent="1" source="XLtBr_4N720LXZbBLFT1-10" target="XLtBr_4N720LXZbBLFT1-7">
          <mxGeometry relative="1" as="geometry"/>
        </mxCell>
        <mxCell id="XLtBr_4N720LXZbBLFT1-10" value="Conversation Thread1&lt;br&gt;(chat room)" style="html=1;fontSize=18;" vertex="1" parent="1">
          <mxGeometry x="350" y="160" width="190" height="60" as="geometry"/>
        </mxCell>
        <mxCell id="XLtBr_4N720LXZbBLFT1-6" value="User2" style="html=1;fontSize=18;" vertex="1" parent="1">
          <mxGeometry x="130" y="160" width="110" height="50" as="geometry"/>
        </mxCell>
        <mxCell id="XLtBr_4N720LXZbBLFT1-7" value="User3" style="html=1;fontSize=18;" vertex="1" parent="1">
          <mxGeometry x="130" y="240" width="110" height="50" as="geometry"/>
        </mxCell>
        <mxCell id="XLtBr_4N720LXZbBLFT1-23" style="edgeStyle=orthogonalEdgeStyle;rounded=0;orthogonalLoop=1;jettySize=auto;html=1;entryX=1;entryY=0.5;entryDx=0;entryDy=0;fontSize=18;" edge="1" parent="1" source="XLtBr_4N720LXZbBLFT1-17" target="XLtBr_4N720LXZbBLFT1-10">
          <mxGeometry relative="1" as="geometry"/>
        </mxCell>
        <mxCell id="XLtBr_4N720LXZbBLFT1-17" value="Conversation1&lt;br&gt;(chat bubble)" style="html=1;fontSize=18;" vertex="1" parent="1">
          <mxGeometry x="590" y="75" width="150" height="60" as="geometry"/>
        </mxCell>
        <mxCell id="XLtBr_4N720LXZbBLFT1-24" style="edgeStyle=orthogonalEdgeStyle;rounded=0;orthogonalLoop=1;jettySize=auto;html=1;fontSize=18;" edge="1" parent="1" source="XLtBr_4N720LXZbBLFT1-18">
          <mxGeometry relative="1" as="geometry">
            <mxPoint x="540" y="190" as="targetPoint"/>
          </mxGeometry>
        </mxCell>
        <mxCell id="XLtBr_4N720LXZbBLFT1-18" value="Conversation2" style="html=1;fontSize=18;" vertex="1" parent="1">
          <mxGeometry x="590" y="135" width="150" height="60" as="geometry"/>
        </mxCell>
        <mxCell id="XLtBr_4N720LXZbBLFT1-25" style="edgeStyle=orthogonalEdgeStyle;rounded=0;orthogonalLoop=1;jettySize=auto;html=1;entryX=1;entryY=0.5;entryDx=0;entryDy=0;fontSize=18;" edge="1" parent="1" source="XLtBr_4N720LXZbBLFT1-19" target="XLtBr_4N720LXZbBLFT1-10">
          <mxGeometry relative="1" as="geometry"/>
        </mxCell>
        <mxCell id="XLtBr_4N720LXZbBLFT1-19" value="Conversation3" style="html=1;fontSize=18;" vertex="1" parent="1">
          <mxGeometry x="590" y="194.5" width="150" height="60" as="geometry"/>
        </mxCell>
        <mxCell id="XLtBr_4N720LXZbBLFT1-26" style="edgeStyle=orthogonalEdgeStyle;rounded=0;orthogonalLoop=1;jettySize=auto;html=1;entryX=1;entryY=0.5;entryDx=0;entryDy=0;fontSize=18;" edge="1" parent="1" source="XLtBr_4N720LXZbBLFT1-20" target="XLtBr_4N720LXZbBLFT1-10">
          <mxGeometry relative="1" as="geometry"/>
        </mxCell>
        <mxCell id="XLtBr_4N720LXZbBLFT1-20" value="Conversation4" style="html=1;fontSize=18;" vertex="1" parent="1">
          <mxGeometry x="590" y="254.5" width="150" height="60" as="geometry"/>
        </mxCell>
      </root>
    </mxGraphModel>
  </diagram>
</mxfile>
